<svg xmlns="http://www.w3.org/2000/svg" viewBox="-14 -14 224 224" role="img" aria-label="Mauá">
  <defs>
    <linearGradient id="fv-chrome-1" x1="0" y1="0" x2="1" y2="0.15">
      <stop offset="0" stop-color="#7a808a"/>
      <stop offset="0.18" stop-color="#eef1f4"/>
      <stop offset="0.38" stop-color="#9aa1ab"/>
      <stop offset="0.55" stop-color="#f6f8fa"/>
      <stop offset="0.75" stop-color="#8c919b"/>
      <stop offset="1" stop-color="#dfe4ea"/>
    </linearGradient>
    <linearGradient id="fv-chrome-2" x1="0" y1="0" x2="1" y2="0.1">
      <stop offset="0" stop-color="#666c76"/>
      <stop offset="0.3" stop-color="#e2e6ea"/>
      <stop offset="0.6" stop-color="#9aa1ab"/>
      <stop offset="1" stop-color="#c7cdd4"/>
    </linearGradient>
    <linearGradient id="fv-red" x1="0" y1="0" x2="1" y2="0">
      <stop offset="0" stop-color="#8f0c1a"/>
      <stop offset="0.45" stop-color="#e2202c"/>
      <stop offset="1" stop-color="#ff5c56"/>
    </linearGradient>
  </defs>

  <rect x="-14" y="-14" width="224" height="224" rx="46" fill="#0c0e11"/>

  <path fill="url(#fv-red)" d="
    M 22,178
    C 58,142 92,112 118,108
    C 148,102 172,110 192,130
    C 175,122 148,116 122,122
    C 92,130 58,152 22,178"/>
  <path fill="url(#fv-chrome-2)" d="
    M 24,166
    C 62,128 100,95 130,88
    C 175,77 225,85 270,108
    C 250,100 205,82 165,86
    C 120,92 70,122 24,166"/>
  <path fill="url(#fv-chrome-1)" d="
    M 20,160
    C 75,108 135,58 190,42
    C 260,22 340,32 404,90
    C 388,86 320,50 250,52
    C 185,55 120,92 20,160"/>
</svg>
