<?xml version="1.0" encoding="UTF-8"?> <svg xmlns="http://www.w3.org/2000/svg" xmlns:xlink="http://www.w3.org/1999/xlink" xmlns:xodm="http://www.corel.com/coreldraw/odm/2003" xml:space="preserve" width="210mm" height="70mm" version="1.1" style="shape-rendering:geometricPrecision; text-rendering:geometricPrecision; image-rendering:optimizeQuality; fill-rule:evenodd; clip-rule:evenodd" viewBox="0 0 21000 7000"> <defs> <style type="text/css"> .fil0 {fill:#006CB5;fill-rule:nonzero} .fil2 {fill:#FEFEFE;fill-rule:nonzero} .fil1 {fill:#FFCC29;fill-rule:nonzero} </style> </defs> <g id="Capa_x0020_1"> <metadata id="CorelCorpID_0Corel-Layer"></metadata> <g id="_1744505904144"> <g> <path class="fil0" d="M4976.27 1000.98l-3476.27 0 0 3477.36c0,839.88 680.79,1520.68 1520.67,1520.68l977.62 0 0 -500.03 2498.65 0 0 -2977.33c-0.35,-839.88 -681.15,-1520.68 -1520.67,-1520.68zm-1708.67 860.13l0 -0.72c0,-28.2 -23.14,-51.34 -51.71,-51.34l-23.85 0 0 103.05 23.86 -0.02c28.56,0 51.7,-22.77 51.7,-50.97l0 0zm590.77 308.41l0 -0.36c0,-28.56 -23.86,-51.34 -52.07,-51.34l-614.63 -0.01 0 103.4 614.63 0c28.58,0 52.07,-23.14 52.07,-51.69l0 0zm-1280.25 -588.62c0,-44.83 37.61,-81.34 83.88,-81.34l634.17 0c25.67,0 49.16,8.68 67.97,24.58l293.57 220.91c9.4,7.22 15.91,18.07 15.91,30.73 0,22.41 -18.81,40.86 -40.86,40.86l323.95 0c61.46,0 119.31,21.7 165.59,56.76l238.63 179.32 296.1 221.99c10.13,8.67 16.28,18.8 16.28,31.45 0,23.14 -18.44,41.58 -43.03,41.58l-1968.64 0.02c-46.28,0 -83.87,-36.88 -83.87,-82.07l0 -684.79 0.35 0zm2129.53 1255.31l0 -47.01c0,-43.74 -36.16,-79.54 -81,-79.54l-1434.98 0 0 205.72 1434.63 0c45.19,0 81.35,-35.79 81.35,-79.17l0 0zm-2129.53 -326.85c0,-45.19 37.61,-82.07 83.88,-82.07l2160.98 0c26.03,0 50.26,7.95 67.97,23.5l433.5 328.28c10.12,7.6 16.63,19.16 16.63,30.74 0,22.77 -18.81,41.21 -41.94,41.21l37.24 0.01c46.28,0 83.52,38.33 83.52,82.07l-0.73 259.96c0,43.03 -39.05,82.07 -83.52,82.07l-471.82 -0.01c-44.46,0 -83.87,-36.88 -83.87,-82.07l0 -48.44c0,-45.19 -37.24,-82.07 -83.52,-82.07l-1479.46 0 0 130.15c0,45.19 -37.6,82.07 -83.87,82.07l-471.47 0c-46.28,0 -83.87,-36.88 -83.87,-82.07l0 -683.33 0.35 0zm2851.9 1763.27c-285.99,490.27 -870.97,705.38 -1431.73,705.38 -561.11,0 -1145.38,-215.12 -1431.73,-705.38 -2.89,-6.15 -5.42,-13.02 -5.42,-19.88 0,-22.41 18.8,-40.49 42.31,-40.49l655.11 -0.01c22.41,0 41.94,18.43 41.94,40.49 28.2,273.69 330.46,491.7 698.15,491.7 367.33,0 669.94,-218.01 698.15,-491.7 1.08,-22.41 19.52,-40.49 42.66,-40.49l655.13 0c22.41,0 41.58,18.43 41.58,40.49 -0.72,6.87 -3.27,13.74 -6.15,19.89zm-802.64 -662.36l-1354.72 0c-44.83,0 -80.99,34.71 -80.99,78.1l0 185.12c0,44.11 35.79,78.81 80.99,78.81l1355.09 0c44.83,0 79.9,-34.7 79.9,-78.81l0 -185.12c0,-43.74 -35.44,-78.1 -80.27,-78.1l0 0zm980.16 -42.66c0,192.7 -31.46,364.44 -88.22,513.76 -12.65,28.93 -43.03,50.61 -77.01,50.61l-2888.4 0c-34.35,0 -63.99,-21.33 -77.01,-50.61 -56.77,-149.32 -87.86,-321.06 -87.86,-513.76l0 -105.93c0,-58.93 48.82,-105.93 108.83,-105.93l107.73 -0.01 2894.92 0c59.66,0 107.74,47.36 107.74,105.93l-0.72 105.94zm1888.37 -1571.28l715.85 0c177.52,0 312.02,45.56 403.13,137.03 70.49,70.49 105.57,157.99 105.57,262.48l0 4.35c0,44.11 -5.42,83.15 -16.27,117.15 -10.85,33.98 -25.68,64.36 -43.74,91.47 -18.44,27.11 -39.41,50.98 -63.64,71.59 -24.23,20.61 -49.89,38.33 -77.74,53.14 89.3,33.99 159.44,79.9 210.78,137.76 51.34,58.21 77.01,138.83 77.01,241.51l0 4.34c0,70.5 -13.73,132.33 -40.85,185.48 -27.11,52.78 -66.17,96.89 -116.78,132.33 -50.62,35.43 -111.73,61.82 -182.95,79.54 -71.22,17.71 -150.04,26.39 -236.81,26.39l-733.56 -0.03 0 -1544.53zm644.63 624.75c75.2,0 134.5,-12.65 178.6,-38.68 44.11,-25.68 66.17,-67.25 66.17,-124.74l0 -4.34c0,-51.34 -19.16,-90.75 -57.49,-117.86 -38.33,-27.11 -93.28,-40.86 -165.59,-40.86l-335.51 0 0 326.48 313.82 0zm90.38 622.23c75.2,0 133.78,-13.74 176.44,-40.86 42.66,-27.11 63.99,-69.42 63.99,-126.91l0 -4.34c0,-51.34 -19.88,-92.2 -59.66,-122.56 -39.76,-30.01 -103.77,-45.19 -191.97,-45.19l-392.65 0 0 339.86 403.85 0zm1221.67 -1257.83l313.46 0 661.99 1555.73 -355.39 0.02 -141.36 -346.36 -653.32 -0.02 -141.36 346.36 -346.38 0.02 662.36 -1555.75zm357.57 909.29l-205.35 -501.1 -205.36 501.1 410.71 0zm707.92 -898.07l313.1 0 723.81 950.86 0 -950.86 335.53 0 0 1544.53 -289.25 0 -748.04 -981.97 0 981.97 -335.15 0 0 -1544.53zm2335.23 1570.91c-113.16,0 -218.38,-20.6 -315.63,-61.82 -97.25,-41.21 -181.14,-97.25 -251.64,-168.84 -70.49,-71.22 -125.82,-155.46 -165.59,-252.71 -39.76,-97.26 -59.66,-200.66 -59.66,-311.3l0 -4.35c0,-110.27 19.88,-213.67 59.66,-310.2 39.77,-96.17 95.1,-181.14 165.59,-253.81 70.5,-72.67 155.11,-130.16 253.81,-172.1 98.7,-41.93 207.53,-62.91 326.48,-62.91 71.95,0 138.11,5.78 197.4,17.71 59.66,11.58 113.53,27.84 162.34,48.44 48.44,20.61 93.28,45.56 134.5,74.85 41.22,29.28 79.55,61.81 114.61,97.25l-216.2 249.46c-60.39,-54.59 -121.84,-97.25 -184.4,-127.98 -62.54,-31.09 -132.68,-46.29 -210.78,-46.29 -64.71,0 -124.73,12.66 -179.69,37.61 -55.31,24.95 -102.68,59.66 -142.45,103.77 -39.77,44.11 -70.5,95.45 -92.56,153.29 -22.05,58.21 -33.26,120.4 -33.26,186.57l0 4.34c0,66.17 11.21,128.71 33.26,187.65 22.06,58.93 52.42,110.27 91.48,154.38 39.05,44.11 86.04,79.18 141.36,104.85 55.31,25.68 116.05,38.69 182.22,38.69 88.22,0 163.06,-16.28 223.8,-48.44 61.1,-32.54 121.84,-76.65 182.22,-132.33l216.21 218.37c-39.77,42.66 -81,80.99 -123.66,114.98 -42.66,33.98 -89.3,62.91 -140.28,87.12 -50.61,24.23 -106.3,42.67 -166.67,54.96 -59.66,12.64 -127.26,18.79 -202.47,18.79zm1454.15 0c-119.31,0 -228.86,-20.97 -329.01,-62.91 -100.14,-41.94 -186.56,-98.7 -259.23,-169.92 -72.67,-71.22 -129.43,-155.11 -169.92,-251.64 -40.49,-96.17 -60.74,-199.57 -60.74,-310.2l0 -4.35c0,-110.27 20.6,-213.67 61.82,-310.2 41.21,-96.17 98.34,-181.14 171.01,-253.81 73.04,-72.67 159.81,-130.16 260.32,-172.1 100.87,-41.93 210.78,-62.91 329.73,-62.91 119.31,0 228.86,20.98 328.65,62.91 100.15,41.94 186.57,98.71 259.23,169.93 72.67,71.59 129.44,155.46 169.93,251.63 40.49,96.53 60.74,199.58 60.74,310.21l0 4.34c0,110.28 -20.61,213.68 -61.82,309.85 -41.22,96.17 -98.35,180.77 -171.02,253.81 -72.67,73.04 -159.44,130.16 -260.31,172.1 -100.17,42.29 -210.07,63.26 -329.38,63.26l0 0zm4.33 -313.45c67.62,0 130.16,-12.66 187.65,-37.61 57.49,-24.95 106.3,-59.66 146.79,-103.77 40.48,-44.11 71.94,-95.09 95.09,-153.29 22.78,-58.21 34.35,-120.4 34.35,-186.57l0 -4.34c0,-66.17 -11.57,-128.71 -34.35,-187.65 -22.78,-58.93 -55.32,-110.27 -97.25,-154.38 -41.94,-44.11 -91.48,-79.17 -148.96,-104.85 -57.12,-25.68 -120.04,-38.69 -187.65,-38.69 -69.06,0 -131.96,12.66 -188.72,37.61 -56.77,24.95 -105.21,59.66 -145.71,103.77 -40.49,44.11 -71.95,95.45 -95.09,153.29 -22.78,58.21 -34.36,120.4 -34.36,186.57l0 4.34c0,66.17 11.58,128.71 34.36,187.65 22.78,58.93 55.31,110.27 97.25,154.38 41.94,44.11 91.12,79.18 147.87,104.85 56.77,26.03 119.69,38.69 188.73,38.69zm-6815.88 692l706.1 0c195.59,0 345.63,52.06 450.13,156.54 88.22,88.22 132.33,206.08 132.33,352.86l0 4.35c0,125.1 -30.38,227.05 -91.47,305.5 -61.1,78.82 -141.01,136.31 -239.34,173.19l377.46 551.72 -397.36 0 -330.81 -494.25 -4.35 0.02 -262.48 0 0 494.24 -339.86 -0.01 0 -1544.16 -0.35 0zm684.4 750.21c83.87,0 148.23,-19.89 193.07,-59.67 44.83,-39.76 67.24,-92.92 67.24,-159.08l0 -4.35c0,-73.39 -23.5,-128.7 -70.5,-165.59 -47,-36.88 -112.44,-55.31 -196.32,-55.31l-337.68 0.01 0 443.62 344.19 0 0 0.37zm786.73 -750.58l1163.1 0 0 302.62 -827.59 0 0 313.1 728.16 0 0 302.62 -728.16 0 0 324.3 838.43 0 0 302.26 -1173.94 0 0 -1544.9zm1367.73 0.37l631.27 0c92.55,0 175.34,13.02 248.38,38.68 73.04,25.68 134.51,62.19 185.47,109.18 50.99,47.01 89.67,103.4 117.15,168.84 27.11,65.44 40.86,138.11 40.86,217.29l0 4.34c0,89.67 -16.27,168.49 -48.44,236.09 -32.54,67.61 -77.02,124.38 -133.41,169.92 -56.76,45.56 -122.93,79.9 -198.5,102.68 -75.92,22.78 -156.91,34.35 -243.68,34.35l-258.15 0.01 0 463.51 -339.86 -0.01 0 -1544.88 -1.09 0zm609.21 778.76c85.33,0 151.49,-22.41 198.5,-67.24 47,-44.83 70.49,-100.5 70.49,-166.67l0 -4.34c0,-76.65 -24.58,-134.51 -73.76,-174.27 -49.53,-39.77 -116.78,-59.66 -201.75,-59.66l-262.47 0.01 0 472.19 268.99 -0.02zm1378.94 789.99c-207.52,0 -370.59,-57.48 -489.89,-172.09 -119.31,-114.98 -178.6,-286.35 -178.6,-514.13l-0.01 -882.9 339.85 0 0 873.86c0,126.53 29.29,221.63 88.22,285.62 58.94,63.99 140.28,96.17 244.77,96.17 104.48,0 186.19,-30.73 244.76,-92.55 58.94,-61.82 88.22,-154.38 88.22,-278.02l0 -885.08 339.86 0 0 871.69c0,117.85 -15.91,219.82 -47.37,306.59 -31.45,86.77 -77.01,159.09 -135.58,217.29 -58.93,58.21 -130.15,101.59 -214.03,130.15 -83.87,28.93 -177.52,43.4 -280.2,43.4zm910.01 -1569.12l715.87 0c177.52,0 312.02,45.55 403.13,137.03 70.49,70.49 105.57,157.99 105.57,262.48l0 4.35c0,44.11 -5.42,83.15 -16.27,117.15 -10.85,33.98 -25.68,64.36 -43.74,91.47 -18.44,27.11 -39.41,50.98 -63.64,71.59 -24.23,20.61 -49.89,38.33 -77.74,53.14 89.3,33.99 159.44,79.9 210.78,138.11 51.34,58.21 77.01,138.84 77.01,241.51l0 4.35c0,70.49 -13.73,132.33 -40.85,185.47 -27.12,52.79 -66.17,97.25 -116.78,132.33 -50.62,35.06 -111.73,61.82 -182.95,79.54 -71.22,17.71 -150.04,26.39 -236.81,26.39l-733.58 -0.01 0 -1544.9zm644.65 624.75c75.2,0 134.5,-13.02 178.6,-38.69 44.11,-25.67 66.16,-67.24 66.16,-124.73l0 -4.34c0,-51.34 -19.15,-90.75 -57.48,-118.23 -38.33,-27.11 -93.28,-40.86 -165.59,-40.86l-335.51 0.02 0 326.47 313.82 0 0 0.36zm90.38 622.23c75.2,0 133.78,-13.74 176.44,-40.86 42.66,-27.11 63.99,-69.42 63.99,-126.91l0 -4.34c0,-51.34 -19.88,-92.2 -59.66,-122.56 -39.76,-30.01 -103.77,-45.19 -191.98,-45.19l-392.64 0 0 339.86 403.85 0zm738.65 -1246.98l339.84 0 0 1237.94 770.11 0 0 306.96 -1109.95 0 0 -1544.9zm1214.08 1545.25l339.85 0 0 -1544.88 -339.85 0 0 1544.88zm1313.13 26.03c-113.53,0 -218.38,-20.6 -315.63,-61.82 -97.25,-41.21 -181.14,-97.25 -251.64,-168.84 -70.5,-71.22 -125.82,-155.46 -165.59,-252.72 -39.76,-97.25 -59.66,-200.65 -59.66,-311.29l0 -4.35c0,-110.27 19.88,-213.67 59.66,-309.85 39.77,-96.17 95.09,-180.77 165.59,-253.81 70.5,-72.67 155.11,-130.15 253.81,-172.09 98.7,-41.94 207.53,-62.91 326.48,-62.91 71.95,0 138.11,5.78 197.4,17.71 59.66,11.92 113.53,27.83 162.34,48.44 48.44,20.6 93.28,45.56 134.5,75.19 41.21,29.29 79.54,61.82 114.98,97.26l-216.21 249.46c-60.38,-54.59 -121.83,-97.25 -184.39,-127.98 -62.54,-30.74 -132.68,-46.29 -210.78,-46.29 -64.72,0 -124.73,12.66 -179.69,37.61 -55.32,24.95 -102.68,59.66 -142.46,103.77 -39.76,44.11 -70.49,95.09 -92.55,153.29 -22.05,58.21 -33.26,120.4 -33.26,186.57l0 4.34c0,66.17 11.21,128.71 33.26,187.65 22.06,58.93 52.42,110.27 91.47,154.38 39.06,44.11 86.05,79.17 141.01,104.85 55.32,25.68 116.06,38.69 182.22,38.69 88.22,0 163.06,-16.28 223.8,-48.45 61.1,-32.53 121.84,-76.64 182.22,-132.33l216.21 218.38c-39.77,42.66 -80.99,80.99 -123.66,114.98 -42.66,33.98 -89.29,62.91 -140.28,87.12 -50.61,24.23 -106.3,42.67 -166.67,55.32 -59.67,11.59 -127.27,17.72 -202.48,17.72zm1290.73 -1582.12l313.46 0 661.99 1555.74 -355.39 0 -141.37 -346.37 -653.32 0 -141.37 346.37 -346.36 0 662.36 -1555.74zm357.57 909.28l-205.36 -501.1 -205.35 501.1 410.71 0zm-6565.35 -1154.41l289.25 125.81 -176.44 134.5 -255.97 0 143.16 -260.31z"></path> </g> <rect class="fil1" x="3997.92" y="5498.99" width="2498.66" height="500.02"></rect> <g> <path class="fil2" d="M3267.6 1861.11l0 -0.72c0,-28.2 -23.14,-51.34 -51.71,-51.34l-23.85 0 0 103.05 23.86 -0.02c28.56,0 51.7,-22.77 51.7,-50.97l0 0zm590.77 308.41l0 -0.36c0,-28.56 -23.86,-51.34 -52.07,-51.34l-614.63 -0.01 0 103.4 614.63 0c28.58,0 52.07,-23.14 52.07,-51.69l0 0zm-1280.25 -588.62c0,-44.83 37.61,-81.34 83.88,-81.34l634.17 0c25.67,0 49.16,8.68 67.97,24.58l293.57 220.91c9.4,7.22 15.91,18.07 15.91,30.73 0,22.41 -18.81,40.86 -40.86,40.86l323.95 0c61.46,0 119.31,21.7 165.59,56.76l238.63 179.32 296.1 221.99c10.13,8.67 16.28,18.8 16.28,31.45 0,23.14 -18.44,41.58 -43.03,41.58l-1968.64 0.02c-46.28,0 -83.87,-36.88 -83.87,-82.07l0 -684.79 0.35 0zm2129.53 1255.31l0 -47.01c0,-43.74 -36.16,-79.54 -81,-79.54l-1434.98 0 0 205.72 1434.63 0c45.19,0 81.35,-35.79 81.35,-79.17l0 0zm-2129.53 -326.85c0,-45.19 37.61,-82.07 83.88,-82.07l2160.98 0c26.03,0 50.26,7.95 67.97,23.5l433.5 328.28c10.12,7.6 16.63,19.16 16.63,30.74 0,22.77 -18.81,41.21 -41.94,41.21l37.24 0.01c46.28,0 83.52,38.33 83.52,82.07l-0.73 259.96c0,43.03 -39.05,82.07 -83.52,82.07l-471.82 -0.01c-44.46,0 -83.87,-36.88 -83.87,-82.07l0 -48.44c0,-45.19 -37.24,-82.07 -83.52,-82.07l-1479.46 0 0 130.15c0,45.19 -37.6,82.07 -83.87,82.07l-471.47 0c-46.28,0 -83.87,-36.88 -83.87,-82.07l0 -683.33 0.35 0zm2851.9 1763.27c-285.99,490.27 -870.97,705.38 -1431.73,705.38 -561.11,0 -1145.38,-215.12 -1431.73,-705.38 -2.89,-6.15 -5.42,-13.02 -5.42,-19.88 0,-22.41 18.8,-40.49 42.31,-40.49l655.11 -0.01c22.41,0 41.94,18.43 41.94,40.49 28.2,273.69 330.46,491.7 698.15,491.7 367.33,0 669.94,-218.01 698.15,-491.7 1.08,-22.41 19.52,-40.49 42.66,-40.49l655.13 0c22.41,0 41.58,18.43 41.58,40.49 -0.72,6.87 -3.27,13.74 -6.15,19.89zm-802.64 -662.36l-1354.72 0c-44.83,0 -80.99,34.71 -80.99,78.1l0 185.12c0,44.11 35.79,78.81 80.99,78.81l1355.09 0c44.83,0 79.9,-34.7 79.9,-78.81l0 -185.12c0,-43.74 -35.44,-78.1 -80.27,-78.1l0 0zm980.16 -42.66c0,192.7 -31.46,364.44 -88.22,513.76 -12.65,28.93 -43.03,50.61 -77.01,50.61l-2888.4 0c-34.35,0 -63.99,-21.33 -77.01,-50.61 -56.77,-149.32 -87.86,-321.06 -87.86,-513.76l0 -105.93c0,-58.93 48.82,-105.93 108.83,-105.93l107.73 -0.01 2894.92 0c59.66,0 107.74,47.36 107.74,105.93l-0.72 105.94z"></path> </g> </g> </g> </svg> 