<?xml version="1.0" encoding="UTF-8"?> <svg xmlns="http://www.w3.org/2000/svg" xmlns:xlink="http://www.w3.org/1999/xlink" xmlns:xodm="http://www.corel.com/coreldraw/odm/2003" xml:space="preserve" width="210mm" height="150mm" version="1.1" style="shape-rendering:geometricPrecision; text-rendering:geometricPrecision; image-rendering:optimizeQuality; fill-rule:evenodd; clip-rule:evenodd" viewBox="0 0 21000 15000" data-name="Capa 1"> <defs> <style type="text/css"> .fil0 {fill:#FEFEFE} .fil1 {fill:#134292} .fil2 {fill:#8DBC21} </style> </defs> <g id="Capa_x0020_1"> <metadata id="CorelCorpID_0Corel-Layer"></metadata> <g id="_1744612555296"> <path class="fil0" d="M17914 4783.91l37.1 36.54 -189.27 213.02c-1465.22,1649.07 -3699.45,2285.54 -5838.36,1862.67 -904.45,-178.81 -1812.71,-559.39 -2518.05,-1161.89 -654.64,-559.2 -1116.87,-1300.88 -1176.14,-2172.15l-21.79 -320.36 981.38 0c-58.83,-198.09 -94.8,-402.86 -106.43,-609.27l-17.86 -316.88 969.05 0c-63.04,-206.97 -100.52,-421.5 -110.02,-637.85l-13.76 -313.17 3664.24 0 41.55 251c148.4,896.45 892.52,1651.52 1723.7,1964.18 1306.99,491.63 2661.25,-53.05 3709.92,-860.44l214.73 -165.32 372.46 393.74 -176.98 205.22c-218.64,253.52 -457.72,485.55 -713.86,694.35l50.04 53.21 -178.7 204.79c-215.87,247.39 -451.26,474.13 -702.95,678.61zm-2242.21 6677.59l-704.38 0 -390.26 1938.46 -1831.97 0 743.68 -3657.6 -1909.16 0 -7.91 -0.47c-13.27,-0.61 -33.86,-0.19 -56.31,1.47 58.95,31.92 131.44,66.93 162.47,84.88 300.6,173.89 576.67,365.42 820.54,615.55 389.17,399.18 634.96,901.97 544.74,1471.05l-1 6.28 -1.26 6.23c-190.46,941.59 -1018.47,1618.67 -1979.08,1618.67 -11.36,0 -22.73,0 -34.09,0l-3778.01 0 292.57 -1816.35 -739.16 0 -341.45 1840.82 -2298.79 -0.5c-111.05,7.9 -222.44,12.45 -333.78,12.45 -115.05,0 -230.16,-4.86 -344.89,-13.25l-5.73 -0.42 -5.72 -0.64c-1157.27,-129.41 -2032.79,-1108.55 -2032.79,-2273 0,-247.6 40.64,-494.62 118.92,-729.47 249.68,-1017.86 901.69,-1736.76 1857.28,-2145.97 620.25,-265.6 1341.47,-386.85 2015.49,-386.85l373.16 0 -337.61 1534.93c331.15,-829.53 1072.29,-1444.95 1969.15,-1614.94l27.69 -5.25 433.28 0 2.86 0.05c660.39,12.6 1209.33,305.36 1517.46,895.73 98.4,188.53 165.08,395.13 203.9,608.45 2.81,-10.43 5.73,-20.9 8.75,-31.41l2.87 -10 3.55 -9.77c309.43,-850.65 1117.87,-1417.57 2023.19,-1417.57 20.3,0 40.43,0.2 60.63,1.39l3902.47 0 -341.44 1731.11 717.3 0 339.12 -1719.41 1874.13 -90.76 -1099.12 5494.57 -1831.55 0 390.26 -1938.46zm-10304.27 -1591.18l-229.18 -19.35c-278.19,-23.49 -649.75,31.7 -910.28,120.48 -577.94,196.94 -896.36,598.03 -960.31,1209.3 -33.99,324.9 164.91,505.91 449.21,619.62 354.08,141.63 806.13,157.27 1201.21,115.21 145.76,-630.93 286.93,-1265.25 415.37,-1899.23 9.98,-49.22 21.31,-97.91 33.98,-146.03zm4268.21 456.43c-5.69,40.66 -12.22,81 -19.57,120.93l-0.71 3.83 -0.8 3.81c-92.93,440.51 -189.43,880.59 -286.22,1320.44l1507.58 0.38 2.72 0.06c62.38,1.01 225.9,-9.56 315.25,-37.57 -37.28,-60.09 -182.02,-162.28 -222.38,-189.66 -205.2,-139.19 -420.28,-258.55 -622.03,-404.97 -323.87,-235.07 -560.34,-501.73 -673.84,-817.25zm-1764.27 -318.59c-0.65,-31.88 -3.16,-62.44 -7.8,-89.77 -20.95,-123.42 -66.45,-153.87 -195.7,-151.64l-2.58 0.04 -136.79 0c-121.26,35.08 -217.94,128.34 -287.45,241.37l630.32 0z"></path> <path class="fil1" d="M9381.93 2615.59l3096.37 0c292.59,1767.52 2840.65,3657.6 5912.61,1292.46 -931.22,1067.15 -2245.33,1728.82 -3657.13,1840.78 -1393.83,-114.73 -2568.8,-1089.72 -2937.88,-2438.86l-2267.91 0.47c-82.94,-222.56 -132.7,-457.55 -146.06,-695.31l0 0.46z"></path> <path class="fil2" d="M10222.84 1664.57l3096.83 0c292.6,1767.5 2840.65,3657.6 5912.61,1292.45 -927.07,1074.98 -2242.1,1742.17 -3657.6,1853.22 -1372.18,-140.08 -2519.94,-1109.54 -2888.57,-2438.85l-2316.75 0c-85.24,-226.25 -135.48,-465.38 -146.06,-707.28l-0.46 0.46zm-1694.25 1877.17l3108.8 0c182.48,1511.8 2998.7,3950.19 5900.17,1292.47 -3011.13,3388.97 -8801.64,1755.53 -9008.97,-1292.47zm8058.4 4742.71l-341.43 1731.11 -1328.86 0 341.44 -1731.11 -3547.94 0c-16.12,-1.39 -33.63,-1.39 -50.21,-1.39 -779.18,0 -1474.93,487.96 -1741.26,1220.12 -427.14,1487.84 1681.81,1646.35 1535.75,2316.76 0,268.17 -621.59,256.2 -621.59,256.2l-1877.64 -0.48c0,0 268.17,-1219.18 365.86,-1682.26 170.48,-926.61 -146.53,-2121.4 -1426.56,-2145.82l-402.24 0c-933.52,176.94 -1669.83,898.52 -1864.74,1828.34 -171.41,878.23 -463.99,2109.41 -463.99,2109.41 -1133.5,182.93 -2291.87,-121.64 -2194.2,-1035.8 182.93,-1767.98 2194.2,-1597.5 2194.2,-1597.5l268.16 -1219.19c-792.53,0 -3072.41,194.91 -3584.33,2316.28 -70.49,207.36 -107.36,426.23 -107.36,646.01 0,1011.85 760.73,1862.43 1766.13,1974.86 106.9,7.82 215.65,12.45 323,12.45 107.36,0 216.11,-4.63 323.01,-12.45l2060.1 0.45 341.44 -1840.77 1340.82 0 -292.57 1816.35 3425.82 0c11.06,0 22.57,0 34.09,0 817.88,0 1522.86,-576.41 1685.04,-1378.15 158.51,-999.88 -987.43,-1645.89 -1219.2,-1779.95 -231.76,-134.09 -390.27,-157.6 -378.3,-413.78 12,-256.2 439.13,-231.78 439.13,-231.78l2267.44 0 -743.68 3657.6 1219.21 0 390.26 -1938.46 1316.42 0 -390.26 1938.46 1219.2 0 975.44 -4876.32 -1255.6 60.81zm-8448.69 2023.71l-1316.42 0c0,0 97.69,-719.26 670.43,-841.37l170.48 0c694.84,-11.98 475.51,841.37 475.51,841.37z"></path> </g> </g> </svg> 